<svg width="2714.285714285714" height="2500" xmlns="http://www.w3.org/2000/svg"><desc>Traced by BDFM https://bitmap.designfamilymarket.com/</desc><path d="M 0 0 L 0 0 L 2714 0 L 2714 2500 L 0 2500 L 0 0 Z M 2071 500 L 2071 500 L 2071 571 L 1929 571 L 1929 643 L 1857 643 L 1857 714 L 1714 714 L 1714 786 L 1643 786 L 1643 857 L 1571 857 L 1571 929 L 1500 929 L 1500 1000 L 1429 1000 L 1429 1071 L 1357 1071 L 1357 1143 L 1286 1143 L 1286 1214 L 1214 1214 L 1214 1357 L 1071 1357 L 1071 1286 L 1000 1286 L 1000 1214 L 857 1214 L 857 1143 L 714 1143 L 714 1071 L 571 1071 L 571 1143 L 500 1143 L 500 1214 L 429 1214 L 429 1571 L 571 1571 L 571 1643 L 643 1643 L 643 1786 L 786 1786 L 786 1857 L 857 1857 L 857 1929 L 929 1929 L 929 2071 L 1071 2071 L 1071 2143 L 1214 2143 L 1214 2071 L 1286 2071 L 1286 2000 L 1357 2000 L 1357 1929 L 1429 1929 L 1429 1786 L 1500 1786 L 1500 1643 L 1571 1643 L 1571 1571 L 1643 1571 L 1643 1429 L 1714 1429 L 1714 1357 L 1786 1357 L 1786 1286 L 1857 1286 L 1857 1143 L 1929 1143 L 1929 1071 L 2000 1071 L 2000 1000 L 2071 1000 L 2071 929 L 2143 929 L 2143 857 L 2214 857 L 2214 786 L 2286 786 L 2286 714 L 2357 714 L 2357 500 L 2071 500 Z" fill="rgb(250,251,253)" /><path d="M 2071 500 L 2071 500 L 2214 500 L 2214 571 L 2071 571 L 2071 500 Z M 2286 500 L 2286 500 L 2357 500 L 2357 714 L 2286 714 L 2286 786 L 2214 786 L 2214 857 L 2143 857 L 2143 929 L 2071 929 L 2071 1000 L 2000 1000 L 2000 1071 L 1929 1071 L 1929 1143 L 1857 1143 L 1857 1286 L 1786 1286 L 1786 1357 L 1714 1357 L 1714 1429 L 1643 1429 L 1643 1571 L 1571 1571 L 1571 1643 L 1500 1643 L 1500 1786 L 1429 1786 L 1429 1929 L 1357 1929 L 1357 2000 L 1286 2000 L 1286 2071 L 1214 2071 L 1214 2143 L 1071 2143 L 1071 2071 L 929 2071 L 929 1929 L 857 1929 L 857 1857 L 786 1857 L 786 1786 L 643 1786 L 643 1643 L 571 1643 L 571 1571 L 429 1571 L 429 1429 L 571 1429 L 571 1500 L 643 1500 L 643 1571 L 714 1571 L 714 1643 L 786 1643 L 786 1714 L 857 1714 L 857 1786 L 929 1786 L 929 1857 L 1000 1857 L 1000 2000 L 1286 2000 L 1286 1857 L 1357 1857 L 1357 1714 L 1429 1714 L 1429 1571 L 1500 1571 L 1500 1500 L 1571 1500 L 1571 1357 L 1643 1357 L 1643 1286 L 1714 1286 L 1714 1143 L 1786 1143 L 1786 1071 L 1857 1071 L 1857 1000 L 1929 1000 L 1929 929 L 2000 929 L 2000 857 L 2071 857 L 2071 786 L 2143 786 L 2143 714 L 2214 714 L 2214 643 L 2286 643 L 2286 500 Z M 1929 571 L 1929 571 L 2000 571 L 2000 643 L 1929 643 L 1929 571 Z M 1714 714 L 1714 714 L 1786 714 L 1786 786 L 1714 786 L 1714 714 Z M 643 1071 L 643 1071 L 714 1071 L 714 1143 L 643 1143 L 643 1071 Z M 786 1143 L 786 1143 L 857 1143 L 857 1214 L 786 1214 L 786 1143 Z M 429 1214 L 429 1214 L 500 1214 L 500 1286 L 429 1286 L 429 1214 Z M 929 1214 L 929 1214 L 1000 1214 L 1000 1286 L 1071 1286 L 1071 1357 L 1000 1357 L 1000 1286 L 929 1286 L 929 1214 Z M 1214 1214 L 1214 1214 L 1286 1214 L 1286 1286 L 1214 1286 L 1214 1214 Z" fill="rgb(198,231,215)" /><path d="M 2214 500 L 2214 500 L 2286 500 L 2286 643 L 2214 643 L 2214 714 L 2143 714 L 2143 786 L 2071 786 L 2071 857 L 2000 857 L 2000 929 L 1929 929 L 1929 1000 L 1857 1000 L 1857 1071 L 1786 1071 L 1786 1143 L 1714 1143 L 1714 1286 L 1643 1286 L 1643 1357 L 1571 1357 L 1571 1500 L 1500 1500 L 1500 1571 L 1429 1571 L 1429 1714 L 1357 1714 L 1357 1857 L 1286 1857 L 1286 2000 L 1000 2000 L 1000 1857 L 929 1857 L 929 1786 L 857 1786 L 857 1714 L 786 1714 L 786 1643 L 714 1643 L 714 1571 L 643 1571 L 643 1500 L 571 1500 L 571 1429 L 429 1429 L 429 1286 L 500 1286 L 500 1143 L 571 1143 L 571 1071 L 643 1071 L 643 1143 L 786 1143 L 786 1214 L 929 1214 L 929 1286 L 1000 1286 L 1000 1357 L 1214 1357 L 1214 1286 L 1286 1286 L 1286 1143 L 1357 1143 L 1357 1071 L 1429 1071 L 1429 1000 L 1500 1000 L 1500 929 L 1571 929 L 1571 857 L 1643 857 L 1643 786 L 1786 786 L 1786 714 L 1857 714 L 1857 643 L 2000 643 L 2000 571 L 2214 571 L 2214 500 Z" fill="rgb(170,166,194)" /></svg>